<svg xmlns="http://www.w3.org/2000/svg" xmlns:xlink="http://www.w3.org/1999/xlink" id="Camada_1" x="0px" y="0px" viewBox="0 0 125.2 125.2" style="enable-background:new 0 0 125.2 125.2;" xml:space="preserve">
<style type="text/css">
	.st0{fill:#FFFFFF;}
</style>
<path class="st0" d="M88.4,125c0,0-4.6,2.4-6.3-7.4c-0.4-2.2-1.1-4.4-2.2-6.3c-1.8-3.3-2-3.1-2-3.1c-0.7-0.5-1.1-1.4-1-2.2  c0.2-1.5-1.3-1.2-1.3-1.2s-0.8,0.1-1.6-1.2s-5.4-13.1-5.4-13.1c-0.2-0.7,0-1.5,0.4-2.1c0.8-0.8-0.6-1.7-0.6-1.7s-0.3,0.2-1.5-4.1  c-0.2-0.5-0.2-1.1-0.1-1.7c0.3-0.8-0.5-1.5-0.5-1.5c-0.3-0.4-0.6-0.6-1.1-0.7c-0.8-0.6-1.3-1.4-1.5-2.4c0,0,0-0.5-0.7-0.4  s0-1.5,0-1.5l3.6-1.5L88.4,125L88.4,125z M88.4,125c0,0,5-1.6-0.8-9.7c-1.3-1.8-2.3-3.9-2.9-6c-1-3.6-0.8-3.6-0.8-3.6  c0.1-0.9-0.2-1.7-0.9-2.3c-0.5-0.3-0.6-0.9-0.3-1.4c0.1-0.1,0.2-0.3,0.4-0.3c0,0,0.6-0.5,0.3-2s-5.4-13.1-5.4-13.1  c-0.4-0.7-1.1-1.1-1.8-1.2c-1.1,0-0.8-1.6-0.8-1.6s0.4-0.1-1.9-3.9c-0.2-0.5-0.6-1-1.1-1.3c-0.7-0.4-0.7-1.4-0.7-1.4  c-0.1-0.4,0-0.9,0.2-1.3c0.2-1-0.1-1.9-0.6-2.7c0,0-0.3-0.4,0.2-0.8s-1-1.1-1-1.1l-3.6,1.5L88.4,125L88.4,125z"/>
<path class="st0" d="M36.8,0.3c0,0-5,1.6,0.8,9.7c1.3,1.8,2.3,3.9,2.9,6c1,3.6,0.8,3.6,0.8,3.6c-0.1,0.9,0.2,1.7,0.9,2.3  c0.5,0.3,0.6,0.9,0.3,1.4c-0.1,0.1-0.2,0.3-0.4,0.3c0,0-0.6,0.5-0.3,2s5.4,13.1,5.4,13.1c0.4,0.7,1.1,1.1,1.8,1.2  c1.1,0,0.8,1.6,0.8,1.6s-0.4,0.1,1.9,3.9c0.2,0.5,0.6,1,1.1,1.3c0.7,0.4,0.7,1.4,0.7,1.4c0.1,0.4,0,0.9-0.2,1.3  c-0.2,1,0.1,1.9,0.6,2.7c0,0,0.3,0.4-0.2,0.8s1,1.1,1,1.1l3.6-1.5L36.8,0.3z M36.8,0.3c0,0,4.6-2.4,6.3,7.4c0.4,2.2,1.1,4.4,2.2,6.3  c1.8,3.3,2,3.1,2,3.1c0.7,0.5,1.1,1.4,1,2.2c-0.2,1.5,1.3,1.2,1.3,1.2s0.8,0,1.6,1.2s5.4,13.1,5.4,13.1c0.2,0.7,0,1.5-0.4,2.1  c-0.8,0.8,0.6,1.7,0.6,1.7s0.3-0.2,1.5,4.1c0.2,0.5,0.2,1.1,0.1,1.7c-0.3,0.8,0.5,1.5,0.5,1.5c0.3,0.4,0.6,0.6,1.1,0.7  c0.8,0.6,1.3,1.4,1.5,2.4c0,0,0,0.5,0.7,0.4s0,1.5,0,1.5l-3.6,1.5L36.8,0.3z"/>
<path class="st0" d="M0.3,88.4c0,0-2.4-4.6,7.4-6.3c2.2-0.4,4.4-1.1,6.3-2.2c3.3-1.8,3.1-2,3.1-2c0.5-0.7,1.4-1.1,2.2-1  c1.5,0.2,1.2-1.3,1.2-1.3s0-0.8,1.2-1.6s13.1-5.4,13.1-5.4c0.7-0.2,1.5,0,2.1,0.4c0.8,0.8,1.7-0.6,1.7-0.6s-0.2-0.3,4.1-1.5  c0.5-0.2,1.1-0.2,1.7-0.1c0.8,0.2,1.5-0.5,1.5-0.5c0.4-0.3,0.6-0.6,0.7-1.1c0.6-0.8,1.4-1.3,2.4-1.5c0,0,0.5,0,0.4-0.7s1.5,0,1.5,0  l1.5,3.6L0.3,88.4z M0.3,88.4c0,0,1.6,5,9.7-0.8c1.8-1.3,3.9-2.3,6-2.9c3.6-1,3.6-0.8,3.6-0.8c0.9,0.1,1.7-0.2,2.3-0.9  c0.3-0.5,0.9-0.6,1.4-0.3c0.1,0.1,0.3,0.2,0.3,0.4c0,0,0.5,0.6,2,0.3s13.1-5.4,13.1-5.4c0.7-0.4,1.1-1.1,1.2-1.8  c0-1.1,1.6-0.8,1.6-0.8s0.1,0.4,3.9-1.9c0.5-0.2,1-0.6,1.3-1.1c0.4-0.7,1.4-0.7,1.4-0.7c0.4-0.1,0.9,0,1.3,0.2  c1,0.2,1.9-0.1,2.7-0.6c0,0,0.4-0.3,0.8,0.2s1.1-1,1.1-1l-1.5-3.6L0.3,88.4z"/>
<path class="st0" d="M125,36.8c0,0-1.6-5-9.7,0.8c-1.8,1.3-3.9,2.3-6,2.9c-3.6,1-3.6,0.8-3.6,0.8c-0.9-0.1-1.7,0.2-2.3,0.9  c-0.3,0.5-0.9,0.6-1.4,0.3c-0.1-0.1-0.3-0.2-0.3-0.4c0,0-0.5-0.6-2-0.3s-13.1,5.4-13.1,5.4c-0.7,0.4-1.1,1.1-1.2,1.8  c0,1.1-1.6,0.8-1.6,0.8s-0.1-0.4-3.9,1.9c-0.5,0.2-1,0.6-1.3,1.1c-0.4,0.7-1.4,0.7-1.4,0.7c-0.4,0.1-0.9,0-1.3-0.2  c-1-0.2-1.9,0.1-2.7,0.6c0,0-0.4,0.3-0.8-0.2s-1.1,1-1.1,1l1.5,3.6L125,36.8L125,36.8z M125,36.8c0,0,2.4,4.6-7.4,6.3  c-2.2,0.4-4.4,1.1-6.3,2.2c-3.3,1.8-3.1,2-3.1,2c-0.5,0.7-1.4,1.1-2.2,1c-1.5-0.2-1.2,1.3-1.2,1.3s0.1,0.8-1.2,1.6  s-13.1,5.4-13.1,5.4c-0.7,0.2-1.5,0-2.1-0.4c-0.8-0.8-1.7,0.6-1.7,0.6s0.2,0.3-4.1,1.5c-0.5,0.2-1.1,0.2-1.7,0.1  c-0.8-0.2-1.5,0.5-1.5,0.5c-0.4,0.3-0.6,0.6-0.7,1.1c-0.6,0.8-1.4,1.3-2.4,1.5c0,0-0.5,0-0.4,0.7s-1.5,0-1.5,0l-1.5-3.6L125,36.8z"/>
<path class="st0" d="M125,88.4c0,0-1.6,5-9.7-0.8c-1.8-1.3-3.9-2.3-6-2.9c-3.6-1-3.6-0.8-3.6-0.8c-0.9,0.1-1.7-0.2-2.3-0.9  c-0.3-0.5-0.9-0.6-1.4-0.3c-0.1,0.1-0.3,0.2-0.3,0.4c0,0-0.5,0.6-2,0.3S86.6,78,86.6,78c-0.7-0.4-1.1-1.1-1.2-1.8  c0-1.1-1.6-0.8-1.6-0.8s-0.1,0.4-3.9-1.9c-0.5-0.2-1-0.6-1.3-1.1c-0.4-0.7-1.4-0.7-1.4-0.7c-0.4-0.1-0.9,0-1.3,0.2  c-1,0.2-1.9-0.1-2.7-0.6c0,0-0.4-0.3-0.8,0.2s-1.1-1-1.1-1l1.5-3.6L125,88.4L125,88.4z M125,88.4c0,0,2.4-4.6-7.4-6.3  c-2.2-0.4-4.4-1.1-6.3-2.2c-3.3-1.8-3.1-2-3.1-2c-0.5-0.7-1.4-1.1-2.2-1c-1.5,0.2-1.2-1.3-1.2-1.3s0.1-0.8-1.2-1.6  s-13.1-5.4-13.1-5.4c-0.7-0.2-1.5,0-2.1,0.4c-0.8,0.8-1.7-0.6-1.7-0.6s0.2-0.3-4.1-1.5c-0.5-0.2-1.1-0.2-1.7-0.1  c-0.8,0.2-1.5-0.5-1.5-0.5c-0.4-0.3-0.6-0.6-0.7-1.1c-0.6-0.8-1.4-1.3-2.4-1.5c0,0-0.5,0-0.4-0.7s-1.5,0-1.5,0l-1.5,3.6L125,88.4  L125,88.4z"/>
<path class="st0" d="M0.3,36.8c0,0-2.4,4.6,7.4,6.3c2.2,0.4,4.4,1.1,6.3,2.2c3.3,1.8,3.1,2,3.1,2c0.5,0.7,1.4,1.1,2.2,1  c1.5-0.2,1.2,1.3,1.2,1.3s-0.1,0.8,1.2,1.6s13.1,5.4,13.1,5.4c0.7,0.2,1.5,0,2.1-0.4c0.8-0.8,1.7,0.6,1.7,0.6s-0.2,0.3,4.1,1.5  c0.5,0.2,1.1,0.2,1.7,0.1c0.8-0.2,1.5,0.5,1.5,0.5c0.4,0.3,0.6,0.6,0.7,1.1c0.6,0.8,1.4,1.3,2.4,1.5c0,0,0.5,0,0.4,0.7s1.5,0,1.5,0  l1.5-3.6L0.3,36.8z M0.3,36.8c0,0,1.6-5,9.7,0.8c1.8,1.3,3.9,2.3,6,2.9c3.6,1,3.6,0.8,3.6,0.8c0.9-0.1,1.7,0.2,2.3,0.9  c0.3,0.5,0.9,0.6,1.4,0.3c0.1-0.1,0.3-0.2,0.3-0.4c0,0,0.5-0.6,2-0.3s13.1,5.4,13.1,5.4c0.7,0.4,1.1,1.1,1.2,1.8  c0,1.1,1.6,0.8,1.6,0.8s0.1-0.4,3.9,1.9c0.5,0.2,1,0.6,1.3,1.1c0.4,0.7,1.4,0.7,1.4,0.7c0.4,0.1,0.9,0,1.3-0.2  c1-0.2,1.9,0.1,2.7,0.6c0,0,0.4,0.3,0.8-0.2s1.1,1,1.1,1l-1.5,3.6L0.3,36.8z"/>
<path class="st0" d="M36.8,125c0,0-5-1.6,0.8-9.7c1.3-1.8,2.3-3.9,2.9-6c1-3.6,0.8-3.6,0.8-3.6c-0.1-0.9,0.2-1.7,0.9-2.3  c0.5-0.3,0.6-0.9,0.3-1.4c-0.1-0.1-0.2-0.3-0.4-0.3c0,0-0.6-0.5-0.3-2s5.4-13.1,5.4-13.1c0.4-0.7,1.1-1.1,1.8-1.2  c1.1,0,0.8-1.6,0.8-1.6s-0.4-0.1,1.9-3.9c0.2-0.5,0.6-1,1.1-1.3c0.7-0.4,0.7-1.4,0.7-1.4c0.1-0.4,0-0.9-0.2-1.3  c-0.2-1,0.1-1.9,0.6-2.7c0,0,0.3-0.4-0.2-0.8s1-1.1,1-1.1l3.6,1.5L36.8,125L36.8,125z M36.8,125c0,0,4.6,2.4,6.3-7.4  c0.4-2.2,1.1-4.4,2.2-6.3c1.8-3.3,2-3.1,2-3.1c0.7-0.5,1.1-1.4,1-2.2c-0.2-1.5,1.3-1.2,1.3-1.2s0.8,0.1,1.6-1.2s5.4-13.1,5.4-13.1  c0.2-0.7,0-1.5-0.4-2.1c-0.8-0.8,0.6-1.7,0.6-1.7s0.3,0.2,1.5-4.1c0.2-0.5,0.2-1.1,0.1-1.7c-0.2-0.8,0.5-1.5,0.5-1.5  c0.3-0.4,0.6-0.6,1.1-0.7c0.8-0.6,1.3-1.4,1.5-2.4c0,0,0-0.5,0.7-0.4s0-1.5,0-1.5l-3.6-1.5L36.8,125L36.8,125z"/>
<path class="st0" d="M88.4,0.3L66.8,52.5l-3.6-1.5c0,0-0.6-1.6,0-1.5s0.7-0.4,0.7-0.4c0.1-1,0.7-1.8,1.5-2.4  c0.4-0.1,0.8-0.4,1.1-0.7c0,0,0.8-0.8,0.5-1.5c-0.1-0.6-0.1-1.2,0.1-1.7c1.1-4.3,1.5-4.1,1.5-4.1s1.4-0.9,0.6-1.7  c-0.5-0.6-0.6-1.4-0.4-2.1c0,0,4.6-11.9,5.4-13.1c0.8-1.2,1.6-1.2,1.6-1.2s1.4,0.3,1.3-1.2c-0.1-0.9,0.3-1.7,1-2.2  c0,0,0.2,0.2,2-3.1c1.1-2,1.8-4.1,2.2-6.3C83.8-2.1,88.4,0.3,88.4,0.3z M88.4,0.3L66.8,52.5l3.6,1.5c0,0,1.5-0.7,1-1.1  s-0.2-0.8-0.2-0.8c0.6-0.8,0.8-1.7,0.6-2.7c-0.2-0.4-0.3-0.8-0.2-1.3c0,0,0-1.1,0.7-1.4c0.5-0.3,0.9-0.8,1.1-1.3  c2.2-3.9,1.9-3.9,1.9-3.9s-0.3-1.6,0.8-1.6c0.8-0.1,1.4-0.5,1.8-1.2c0,0,5.1-11.7,5.4-13.1c0.3-1.4-0.3-2-0.3-2  c-0.2-0.1-0.3-0.2-0.4-0.3c-0.3-0.5-0.2-1.1,0.3-1.4c0.7-0.6,1-1.4,0.9-2.3c0,0-0.3,0,0.8-3.6c0.6-2.2,1.6-4.2,2.9-6  C93.4,1.8,88.4,0.3,88.4,0.3z"/>
<path class="st0" d="M74.8,57.6c2.8,6.7-0.4,14.4-7.1,17.2c-6.7,2.8-14.4-0.4-17.2-7.1c-2.8-6.7,0.4-14.4,7.1-17.2  C64.3,47.7,72,50.8,74.8,57.6C74.8,57.6,74.8,57.6,74.8,57.6z M63.2,33.5c-15.9,0-28.7,12.9-28.7,28.8C34.5,78.1,47.4,91,63.3,91  S92,78.1,92,62.2c0-3.8-0.7-7.5-2.2-11C85.4,40.4,74.9,33.4,63.2,33.5z M63.3,103.2c-22.6,0-41-18.3-41-40.9c0-22.6,18.3-41,40.9-41  c16.6,0,31.5,10,37.9,25.3l0,0c8.7,20.9-1.3,44.8-22.2,53.5C74,102.1,68.7,103.2,63.3,103.2z"/>
</svg>