<svg width="261" height="61" viewBox="0 0 261 61" fill="none" xmlns="http://www.w3.org/2000/svg">
<rect y="30.028" width="42.466" height="42.466" transform="rotate(-45 0 30.028)" fill="#6D7994"/>
<path d="M76.2498 19.0691H82.2517L90.7732 32.9979H90.8298V19.0691H95.2462V39.113H89.4709L80.7229 24.8444H80.6663V39.113H76.2498V19.0691ZM99.505 19.0691H113.122V23.1458H103.921V26.8828H112.613V30.9595H103.921V35.0363H113.632V39.113H99.505V19.0691ZM117.337 19.0691H130.785V23.1458H121.754V27.2225H130.106V31.2993H121.754V39.113H117.337V19.0691ZM133.949 19.0691H141.706C142.726 19.0691 143.688 19.1729 144.594 19.3805C145.519 19.5692 146.321 19.8995 147.001 20.3714C147.699 20.8243 148.246 21.4472 148.643 22.2399C149.058 23.0137 149.265 23.9857 149.265 25.1559C149.265 26.5714 148.897 27.7793 148.161 28.7796C147.425 29.7611 146.349 30.3839 144.934 30.6481L150.03 39.113H144.736L140.546 31.1011H138.366V39.113H133.949V19.0691ZM138.366 27.3641H140.97C141.367 27.3641 141.782 27.3547 142.216 27.3358C142.669 27.298 143.075 27.2131 143.433 27.081C143.792 26.93 144.085 26.7035 144.311 26.4015C144.556 26.0995 144.679 25.6749 144.679 25.1275C144.679 24.618 144.575 24.2122 144.368 23.9102C144.16 23.6082 143.896 23.3817 143.575 23.2307C143.254 23.0609 142.886 22.9476 142.471 22.891C142.056 22.8344 141.65 22.8061 141.253 22.8061H138.366V27.3641ZM151.231 29.091C151.231 27.4868 151.495 26.0335 152.024 24.7312C152.571 23.4289 153.326 22.3248 154.289 21.4189C155.251 20.494 156.393 19.7863 157.714 19.2956C159.036 18.8048 160.479 18.5595 162.046 18.5595C163.612 18.5595 165.056 18.8048 166.377 19.2956C167.699 19.7863 168.84 20.494 169.803 21.4189C170.766 22.3248 171.511 23.4289 172.04 24.7312C172.587 26.0335 172.861 27.4868 172.861 29.091C172.861 30.6953 172.587 32.1486 172.04 33.4509C171.511 34.7532 170.766 35.8667 169.803 36.7915C168.84 37.6975 167.699 38.3958 166.377 38.8865C165.056 39.3772 163.612 39.6226 162.046 39.6226C160.479 39.6226 159.036 39.3772 157.714 38.8865C156.393 38.3958 155.251 37.6975 154.289 36.7915C153.326 35.8667 152.571 34.7532 152.024 33.4509C151.495 32.1486 151.231 30.6953 151.231 29.091ZM155.818 29.091C155.818 30.0347 155.959 30.9029 156.242 31.6956C156.544 32.4694 156.969 33.1489 157.516 33.734C158.064 34.3002 158.715 34.7437 159.47 35.0646C160.243 35.3854 161.102 35.5459 162.046 35.5459C162.99 35.5459 163.839 35.3854 164.594 35.0646C165.368 34.7437 166.028 34.3002 166.576 33.734C167.123 33.1489 167.538 32.4694 167.821 31.6956C168.123 30.9029 168.274 30.0347 168.274 29.091C168.274 28.1662 168.123 27.3075 167.821 26.5148C167.538 25.7221 167.123 25.0426 166.576 24.4764C166.028 23.8913 165.368 23.4383 164.594 23.1175C163.839 22.7966 162.99 22.6362 162.046 22.6362C161.102 22.6362 160.243 22.7966 159.47 23.1175C158.715 23.4383 158.064 23.8913 157.516 24.4764C156.969 25.0426 156.544 25.7221 156.242 26.5148C155.959 27.3075 155.818 28.1662 155.818 29.091ZM176.995 34.923C177.486 35.6591 178.108 36.2065 178.863 36.5651C179.637 36.9048 180.43 37.0746 181.241 37.0746C181.694 37.0746 182.157 37.0086 182.629 36.8765C183.1 36.7255 183.525 36.5084 183.903 36.2253C184.299 35.9422 184.62 35.5931 184.865 35.1778C185.111 34.7626 185.233 34.2813 185.233 33.734C185.233 32.9602 184.988 32.3751 184.497 31.9787C184.006 31.5635 183.393 31.2238 182.657 30.9595C181.94 30.6764 181.147 30.4122 180.279 30.1668C179.43 29.9026 178.637 29.544 177.901 29.091C177.184 28.6381 176.58 28.0341 176.089 27.2792C175.598 26.5053 175.353 25.4673 175.353 24.165C175.353 23.5799 175.475 22.9571 175.721 22.2965C175.985 21.6359 176.391 21.0319 176.938 20.4846C177.486 19.9373 178.184 19.4843 179.033 19.1257C179.901 18.7482 180.939 18.5595 182.147 18.5595C183.242 18.5595 184.29 18.7105 185.29 19.0124C186.29 19.3144 187.168 19.9278 187.923 20.8526L185.714 22.8627C185.375 22.3342 184.893 21.9096 184.271 21.5887C183.648 21.2679 182.94 21.1074 182.147 21.1074C181.392 21.1074 180.76 21.2112 180.251 21.4189C179.76 21.6076 179.363 21.8624 179.061 22.1832C178.76 22.4852 178.542 22.8155 178.41 23.1741C178.297 23.5327 178.24 23.863 178.24 24.165C178.24 25.0143 178.486 25.6655 178.977 26.1184C179.467 26.5714 180.071 26.9394 180.788 27.2225C181.525 27.5056 182.317 27.7604 183.167 27.9869C184.035 28.2134 184.827 28.5343 185.545 28.9495C186.281 29.3458 186.894 29.8932 187.385 30.5915C187.876 31.271 188.121 32.2147 188.121 33.4226C188.121 34.3851 187.932 35.2533 187.555 36.0272C187.196 36.801 186.705 37.4521 186.083 37.9806C185.46 38.5091 184.724 38.9148 183.874 39.1979C183.025 39.4811 182.119 39.6226 181.156 39.6226C179.873 39.6226 178.656 39.3961 177.504 38.9432C176.353 38.4902 175.438 37.7919 174.758 36.8482L176.995 34.923ZM192.132 19.0691H194.849V39.113H192.132V19.0691ZM200.011 19.0691H203.578L214.619 35.5459H214.676V19.0691H217.394V39.113H213.94L202.785 22.6362H202.729V39.113H200.011V19.0691ZM231.744 39.6226C230.216 39.6226 228.809 39.3584 227.526 38.8299C226.243 38.2826 225.138 37.5371 224.214 36.5934C223.308 35.6497 222.591 34.5361 222.062 33.2527C221.552 31.9693 221.298 30.5821 221.298 29.091C221.298 27.6 221.552 26.2128 222.062 24.9294C222.591 23.646 223.308 22.5324 224.214 21.5887C225.138 20.645 226.243 19.909 227.526 19.3805C228.809 18.8331 230.216 18.5595 231.744 18.5595C233.273 18.5595 234.679 18.8331 235.963 19.3805C237.246 19.909 238.341 20.645 239.247 21.5887C240.171 22.5324 240.889 23.646 241.398 24.9294C241.927 26.2128 242.191 27.6 242.191 29.091C242.191 30.5821 241.927 31.9693 241.398 33.2527C240.889 34.5361 240.171 35.6497 239.247 36.5934C238.341 37.5371 237.246 38.2826 235.963 38.8299C234.679 39.3584 233.273 39.6226 231.744 39.6226ZM231.744 37.0746C232.896 37.0746 233.934 36.867 234.858 36.4518C235.783 36.0177 236.576 35.4421 237.237 34.7249C237.897 34.0077 238.407 33.1678 238.765 32.2052C239.124 31.2238 239.303 30.1857 239.303 29.091C239.303 27.9964 239.124 26.9677 238.765 26.0052C238.407 25.0237 237.897 24.1744 237.237 23.4572C236.576 22.74 235.783 22.1738 234.858 21.7586C233.934 21.3245 232.896 21.1074 231.744 21.1074C230.593 21.1074 229.555 21.3245 228.63 21.7586C227.705 22.1738 226.913 22.74 226.252 23.4572C225.591 24.1744 225.082 25.0237 224.723 26.0052C224.365 26.9677 224.185 27.9964 224.185 29.091C224.185 30.1857 224.365 31.2238 224.723 32.2052C225.082 33.1678 225.591 34.0077 226.252 34.7249C226.913 35.4421 227.705 36.0177 228.63 36.4518C229.555 36.867 230.593 37.0746 231.744 37.0746ZM246.693 34.923C247.184 35.6591 247.807 36.2065 248.562 36.5651C249.336 36.9048 250.128 37.0746 250.94 37.0746C251.393 37.0746 251.855 37.0086 252.327 36.8765C252.799 36.7255 253.224 36.5084 253.601 36.2253C253.997 35.9422 254.318 35.5931 254.564 35.1778C254.809 34.7626 254.932 34.2813 254.932 33.734C254.932 32.9602 254.686 32.3751 254.196 31.9787C253.705 31.5635 253.091 31.2238 252.355 30.9595C251.638 30.6764 250.845 30.4122 249.977 30.1668C249.128 29.9026 248.335 29.544 247.599 29.091C246.882 28.6381 246.278 28.0341 245.787 27.2792C245.297 26.5053 245.051 25.4673 245.051 24.165C245.051 23.5799 245.174 22.9571 245.419 22.2965C245.683 21.6359 246.089 21.0319 246.637 20.4846C247.184 19.9373 247.882 19.4843 248.732 19.1257C249.6 18.7482 250.638 18.5595 251.846 18.5595C252.94 18.5595 253.988 18.7105 254.988 19.0124C255.989 19.3144 256.866 19.9278 257.621 20.8526L255.413 22.8627C255.073 22.3342 254.592 21.9096 253.969 21.5887C253.346 21.2679 252.638 21.1074 251.846 21.1074C251.091 21.1074 250.459 21.2112 249.949 21.4189C249.458 21.6076 249.062 21.8624 248.76 22.1832C248.458 22.4852 248.241 22.8155 248.109 23.1741C247.996 23.5327 247.939 23.863 247.939 24.165C247.939 25.0143 248.184 25.6655 248.675 26.1184C249.166 26.5714 249.77 26.9394 250.487 27.2225C251.223 27.5056 252.016 27.7604 252.865 27.9869C253.733 28.2134 254.526 28.5343 255.243 28.9495C255.979 29.3458 256.593 29.8932 257.083 30.5915C257.574 31.271 257.819 32.2147 257.819 33.4226C257.819 34.3851 257.631 35.2533 257.253 36.0272C256.894 36.801 256.404 37.4521 255.781 37.9806C255.158 38.5091 254.422 38.9148 253.573 39.1979C252.723 39.4811 251.817 39.6226 250.855 39.6226C249.571 39.6226 248.354 39.3961 247.203 38.9432C246.052 38.4902 245.136 37.7919 244.457 36.8482L246.693 34.923Z" fill="#556282"/>
</svg>
