<svg width="261" height="62" viewBox="0 0 261 62" fill="none" xmlns="http://www.w3.org/2000/svg">
  <g id="symbol">
    <path d="M30.6016 0L61.4846 31.1418L45.4813 47.2793C45.4813 47.2793 46.1661 43.2503 44.9203 41.0502C43.7967 39.0678 40.7089 38.2185 37.0585 37.0872C30.8635 35.1655 27.5138 33.9736 27.2325 32.5568C26.8432 30.5941 30.0407 29.7251 35.2624 26.6436C37.8264 25.1305 40.7089 22.9322 39.5853 19.5348C39.1889 18.334 37.0585 15.5718 28.6357 15.8537C20.4942 16.1267 14.8796 15.8537 14.8796 15.8537L30.6016 0Z" fill="#DA3372" />
    <path d="M12.3528 18.4017L0 31.1418L30.6016 61.9999L33.4098 59.4519C33.4098 59.4519 33.6912 48.6942 33.1285 46.7118C32.6401 44.9899 30.883 43.3145 30.0407 42.4651C28.5207 40.9324 24.9269 38.5039 23.3025 37.0854C22.3151 36.2235 20.2147 34.8211 20.2147 32.8387C20.2147 30.8563 21.7365 30.2121 23.3025 29.1576C24.987 28.0246 28.6375 25.4765 28.6375 22.3629C28.6375 20.9479 27.2343 19.2492 24.1447 18.9655C21.3348 18.7086 12.3528 18.3999 12.3528 18.3999V18.4017Z" fill="#DA3372" />
  </g>
  <g id="logotype">
    <path d="M76.9797 21.3532L81.9864 21.3449C82.1813 21.3449 82.3637 21.4473 82.4653 21.6146L90.673 35.0944H90.729L90.7082 21.8947C90.7082 21.5832 90.9591 21.3282 91.268 21.3282L94.4752 21.324C94.7841 21.324 95.037 21.5769 95.037 21.8884L95.066 40.5654C95.066 40.8769 94.8152 41.1319 94.5063 41.1319L89.7214 41.1403C89.5265 41.1403 89.3461 41.0379 89.2425 40.8706L80.8109 27.0542H80.7549L80.7757 40.5884C80.7757 40.8999 80.5248 41.1549 80.2159 41.1549L77.0087 41.1612C76.6998 41.1612 76.4469 40.9083 76.4469 40.5968L76.4178 21.9198C76.4178 21.6083 76.6687 21.3532 76.9776 21.3532H76.9797Z" fill="white" />
    <path d="M99.7576 21.3157L111.981 21.2969C112.29 21.2969 112.543 21.5498 112.543 21.8613L112.547 24.7588C112.547 25.0703 112.296 25.3254 111.987 25.3254L104.093 25.3379C103.784 25.3379 103.533 25.593 103.533 25.9044L103.537 28.4675C103.537 28.779 103.79 29.0319 104.099 29.0319L111.494 29.0194C111.803 29.0194 112.056 29.2723 112.056 29.5838L112.06 32.4813C112.06 32.7928 111.809 33.0479 111.5 33.0479L104.105 33.0604C103.796 33.0604 103.545 33.3155 103.545 33.6269L103.549 36.5244C103.549 36.8359 103.802 37.0889 104.111 37.0889L112.506 37.0764C112.814 37.0764 113.067 37.3293 113.067 37.6408L113.072 40.5383C113.072 40.8498 112.821 41.1048 112.512 41.1048L99.7887 41.1258C99.4798 41.1258 99.2269 40.8728 99.2269 40.5613L99.1979 21.8843C99.1979 21.5728 99.4487 21.3178 99.7576 21.3178V21.3157Z" fill="white" />
    <path d="M118.335 21.2883L130.392 21.2695C130.701 21.2695 130.954 21.5225 130.954 21.834L130.958 24.7315C130.958 25.043 130.707 25.298 130.398 25.298L122.67 25.3106C122.361 25.3106 122.11 25.5656 122.11 25.8771L122.114 28.7746C122.114 29.0861 122.367 29.3391 122.676 29.3391L129.739 29.3286C130.048 29.3286 130.301 29.5816 130.301 29.8931L130.305 32.7906C130.305 33.1021 130.054 33.3571 129.745 33.3571L122.682 33.3675C122.373 33.3675 122.122 33.6226 122.122 33.9341L122.133 40.5256C122.133 40.8371 121.882 41.0921 121.573 41.0921L118.366 41.0984C118.057 41.0984 117.804 40.8455 117.804 40.534L117.775 21.857C117.775 21.5455 118.026 21.2904 118.335 21.2904V21.2883Z" fill="white" />
    <path d="M134.718 21.8277C134.718 21.5163 134.969 21.2612 135.278 21.2612L142.319 21.2508C146.341 21.2445 149.728 22.6368 149.736 27.2527C149.741 29.776 148.524 31.7913 146.21 32.5126C145.862 32.6213 145.706 33.0289 145.895 33.3425L149.996 40.187C150.222 40.5633 149.952 41.0441 149.517 41.0441L145.661 41.0504C145.451 41.0504 145.26 40.9333 145.163 40.7472L141.361 33.4428C141.263 33.2568 141.073 33.1397 140.863 33.1397H139.628C139.319 33.1418 139.068 33.3948 139.068 33.7084L139.078 40.4943C139.078 40.8058 138.827 41.0608 138.519 41.0608L135.311 41.065C135.002 41.065 134.75 40.812 134.75 40.5006L134.72 21.8236L134.718 21.8277ZM139.058 28.8875C139.058 29.199 139.31 29.452 139.619 29.452L141.612 29.4478C143.194 29.4457 145.246 29.3851 145.242 27.2318C145.238 25.2458 143.463 24.9406 141.881 24.9427L139.611 24.9468C139.302 24.9468 139.051 25.2019 139.051 25.5134L139.058 28.8875Z" fill="white" />
    <path d="M163.336 20.7134C169.466 20.7029 173.94 24.7523 173.95 31.1034C173.961 37.4545 169.501 41.5186 163.369 41.5269C157.236 41.5353 152.765 37.488 152.754 31.1369C152.744 24.7858 157.203 20.7218 163.336 20.7134ZM163.363 37.4984C167.053 37.4922 169.462 34.8037 169.456 31.1097C169.45 27.4157 167.032 24.7356 163.342 24.7419C159.652 24.7482 157.243 27.4366 157.249 31.1306C157.255 34.8246 159.672 37.5047 163.363 37.4984Z" fill="white" />
    <path d="M188.313 24.1529C188.081 24.3368 187.741 24.3097 187.55 24.0818C186.704 23.0783 185.535 22.5766 184.063 22.5787C182.011 22.5829 179.875 23.6762 179.879 26.1661C179.888 31.5095 189.955 28.6685 189.965 35.8014C189.972 39.4097 186.617 41.5421 183.509 41.5462C181.314 41.5504 179.189 40.8187 177.694 39.0919C177.481 38.8453 177.53 38.4627 177.794 38.2704L178.648 37.6453C178.892 37.4655 179.237 37.5136 179.419 37.7561C180.304 38.9477 181.762 39.7003 183.59 39.6982C185.56 39.694 187.805 38.4042 187.801 36.0815C187.793 30.4872 177.725 33.6084 177.715 26.3626C177.709 22.5306 180.868 20.7348 184.059 20.7285C186.07 20.7244 187.718 21.2282 189.167 22.6539C189.412 22.8944 189.393 23.2978 189.124 23.509L188.311 24.1487L188.313 24.1529Z" fill="white" />
    <path d="M196.353 41.0195H195.476C195.167 41.0195 194.914 40.7686 194.914 40.4571L194.885 21.7802C194.885 21.4687 195.136 21.2136 195.445 21.2136H196.322C196.63 21.2136 196.883 21.4645 196.883 21.776L196.912 40.453C196.912 40.7645 196.662 41.0195 196.353 41.0195Z" fill="white" />
    <path d="M217.329 37.961H217.385L217.358 21.7404C217.358 21.4289 217.609 21.1738 217.918 21.1738H218.795C219.103 21.1738 219.356 21.4247 219.356 21.7362L219.385 40.4132C219.385 40.7247 219.135 40.9797 218.826 40.9797H217.182C216.999 40.9818 216.827 40.8919 216.721 40.7414L205.155 24.0483H205.099L205.126 40.4362C205.126 40.7477 204.875 41.0027 204.566 41.0027H203.689C203.381 41.0027 203.128 40.7518 203.128 40.4403L203.099 21.7634C203.099 21.4519 203.349 21.1968 203.658 21.1968H205.304C205.487 21.1947 205.659 21.2825 205.763 21.4331L217.329 37.9589V37.961Z" fill="white" />
    <path d="M234.95 41.4522C229.096 41.4606 224.707 37.0767 224.696 31.0622C224.686 25.0477 229.063 20.6471 234.917 20.6387C240.772 20.6282 245.161 25.0142 245.171 31.0287C245.182 37.0432 240.805 41.4439 234.95 41.4522ZM234.919 22.4846C229.871 22.493 226.853 26.4985 226.859 31.058C226.865 35.6175 229.896 39.6146 234.946 39.6063C239.994 39.5979 243.013 35.5924 243.007 31.0329C243.001 26.4734 239.97 22.4763 234.919 22.4846Z" fill="white" />
    <path d="M259.348 24.0191C259.115 24.203 258.775 24.1759 258.585 23.948C257.739 22.9445 256.57 22.4428 255.098 22.4449C253.045 22.4491 250.91 23.5424 250.914 26.0323C250.922 31.3757 260.99 28.5347 261 35.6676C261.006 39.2759 257.652 41.4083 254.544 41.4125C252.349 41.4166 250.224 40.6849 248.729 38.9582C248.515 38.7115 248.565 38.3289 248.828 38.1366L249.682 37.5115C249.927 37.3317 250.271 37.3798 250.454 37.6223C251.339 38.8139 252.796 39.5665 254.625 39.5644C256.594 39.5602 258.84 38.2704 258.836 35.9478C258.827 30.3534 248.76 33.4746 248.75 26.2288C248.743 22.3968 251.903 20.601 255.093 20.5948C257.104 20.5906 258.753 21.0944 260.202 22.5202C260.446 22.7606 260.428 23.164 260.158 23.3752L259.346 24.0149L259.348 24.0191Z" fill="white" />
  </g>
</svg>