<svg width="178" height="178" viewBox="0 0 178 178" fill="none" xmlns="http://www.w3.org/2000/svg">
<path d="M88.3074 0L177.427 89.1193L131.246 135.3C131.246 135.3 133.222 123.77 129.627 117.474C126.385 111.801 117.474 109.371 106.94 106.133C89.0631 100.634 79.397 97.2229 78.5851 93.1686C77.4617 87.5517 86.6887 85.065 101.757 76.2465C109.156 71.9164 117.474 65.6255 114.232 55.9032C113.088 52.4667 106.94 44.5622 82.6344 45.369C59.1405 46.1502 42.9384 45.369 42.9384 45.369L88.3074 0Z" fill="#DA3372"/>
<path d="M35.6467 52.6607L0 89.1193L88.3074 177.427L96.411 170.135C96.411 170.135 97.2229 139.349 95.5991 133.676C94.1898 128.749 89.1193 123.954 86.6887 121.524C82.3025 117.137 71.9317 110.188 67.2442 106.128C64.3949 103.662 58.3338 99.6484 58.3338 93.9753C58.3338 88.3023 62.7251 86.459 67.2442 83.4412C72.1053 80.1987 82.6395 72.907 82.6395 63.9966C82.6395 59.9473 78.5902 55.0862 69.6747 54.2743C61.566 53.539 35.6467 52.6556 35.6467 52.6556V52.6607Z" fill="#DA3372"/>
</svg>
