<svg width="49" height="48" viewBox="0 0 49 48" fill="none" xmlns="http://www.w3.org/2000/svg">
<rect x="0.996094" width="48" height="48" rx="4" fill="#FFEEF1"/>
<g clip-path="url(#clip0_1559_2002)">
<path d="M23.1453 17.7687C22.9047 17.1875 22.2703 16.8781 21.6641 17.0437L18.9141 17.7937C18.3703 17.9437 17.9922 18.4375 17.9922 19C17.9922 26.7312 24.2609 33 31.9922 33C32.5547 33 33.0484 32.6218 33.1984 32.0781L33.9484 29.3281C34.1141 28.7218 33.8047 28.0875 33.2234 27.8468L30.2234 26.5968C29.7141 26.3843 29.1234 26.5312 28.7766 26.9593L27.5141 28.5C25.3141 27.4593 23.5328 25.6781 22.4922 23.4781L24.0328 22.2187C24.4609 21.8687 24.6078 21.2812 24.3953 20.7718L23.1453 17.7718V17.7687Z" fill="#DA3372"/>
</g>
<defs>
<clipPath id="clip0_1559_2002">
<rect width="16" height="16" fill="white" transform="translate(17.9922 17)"/>
</clipPath>
</defs>
</svg>
