<svg width="49" height="48" viewBox="0 0 49 48" fill="none" xmlns="http://www.w3.org/2000/svg">
<rect x="0.996094" width="48" height="48" rx="4" fill="#FFEEF1"/>
<path d="M30.5997 18.325C29.1032 16.825 27.1104 16 24.9925 16C20.6211 16 17.064 19.5571 17.064 23.9286C17.064 25.325 17.4282 26.6893 18.1211 27.8929L16.9961 32L21.1997 30.8964C22.3568 31.5286 23.6604 31.8607 24.989 31.8607H24.9925C29.3604 31.8607 32.9961 28.3036 32.9961 23.9321C32.9961 21.8143 32.0961 19.825 30.5997 18.325ZM24.9925 30.525C23.8068 30.525 22.6461 30.2071 21.6354 29.6071L21.3961 29.4643L18.9032 30.1179L19.5675 27.6857L19.4104 27.4357C18.7497 26.3857 18.4032 25.175 18.4032 23.9286C18.4032 20.2964 21.3604 17.3393 24.9961 17.3393C26.7568 17.3393 28.4104 18.025 29.6532 19.2714C30.8961 20.5179 31.6604 22.1714 31.6568 23.9321C31.6568 27.5679 28.6247 30.525 24.9925 30.525ZM28.6068 25.5893C28.4104 25.4893 27.4354 25.0107 27.2532 24.9464C27.0711 24.8786 26.939 24.8464 26.8068 25.0464C26.6747 25.2464 26.2961 25.6893 26.1782 25.825C26.064 25.9571 25.9461 25.975 25.7497 25.875C24.5854 25.2929 23.8211 24.8357 23.0532 23.5179C22.8497 23.1679 23.2568 23.1929 23.6354 22.4357C23.6997 22.3036 23.6675 22.1893 23.6175 22.0893C23.5675 21.9893 23.1711 21.0143 23.0068 20.6179C22.8461 20.2321 22.6818 20.2857 22.5604 20.2786C22.4461 20.2714 22.314 20.2714 22.1818 20.2714C22.0497 20.2714 21.8354 20.3214 21.6532 20.5179C21.4711 20.7179 20.9604 21.1964 20.9604 22.1714C20.9604 23.1464 21.6711 24.0893 21.7675 24.2214C21.8675 24.3536 23.164 26.3536 25.1532 27.2143C26.4104 27.7571 26.9032 27.8036 27.5318 27.7107C27.914 27.6536 28.7032 27.2321 28.8675 26.7679C29.0318 26.3036 29.0318 25.9071 28.9818 25.825C28.9354 25.7357 28.8032 25.6857 28.6068 25.5893Z" fill="#DA3372"/>
</svg>
