<svg width="16" height="17" viewBox="0 0 16 17" fill="none" xmlns="http://www.w3.org/2000/svg">
<path d="M8.00547 4.41172C6.01797 4.41172 4.41484 6.01484 4.41484 8.00234C4.41484 9.98984 6.01797 11.593 8.00547 11.593C9.99297 11.593 11.5961 9.98984 11.5961 8.00234C11.5961 6.01484 9.99297 4.41172 8.00547 4.41172ZM8.00547 10.3367C6.72109 10.3367 5.67109 9.28984 5.67109 8.00234C5.67109 6.71484 6.71797 5.66797 8.00547 5.66797C9.29297 5.66797 10.3398 6.71484 10.3398 8.00234C10.3398 9.28984 9.28984 10.3367 8.00547 10.3367V10.3367ZM12.5805 4.26484C12.5805 4.73047 12.2055 5.10234 11.743 5.10234C11.2773 5.10234 10.9055 4.72734 10.9055 4.26484C10.9055 3.80234 11.2805 3.42734 11.743 3.42734C12.2055 3.42734 12.5805 3.80234 12.5805 4.26484ZM14.9586 5.11484C14.9055 3.99297 14.6492 2.99922 13.8273 2.18047C13.0086 1.36172 12.0148 1.10547 10.893 1.04922C9.73672 0.983594 6.27109 0.983594 5.11484 1.04922C3.99609 1.10234 3.00234 1.35859 2.18047 2.17734C1.35859 2.99609 1.10547 3.98984 1.04922 5.11172C0.983594 6.26797 0.983594 9.73359 1.04922 10.8898C1.10234 12.0117 1.35859 13.0055 2.18047 13.8242C3.00234 14.643 3.99297 14.8992 5.11484 14.9555C6.27109 15.0211 9.73672 15.0211 10.893 14.9555C12.0148 14.9023 13.0086 14.6461 13.8273 13.8242C14.6461 13.0055 14.9023 12.0117 14.9586 10.8898C15.0242 9.73359 15.0242 6.27109 14.9586 5.11484V5.11484ZM13.4648 12.1305C13.2211 12.743 12.7492 13.2148 12.1336 13.4617C11.2117 13.8273 9.02422 13.743 8.00547 13.743C6.98672 13.743 4.79609 13.8242 3.87734 13.4617C3.26484 13.218 2.79297 12.7461 2.54609 12.1305C2.18047 11.2086 2.26484 9.02109 2.26484 8.00234C2.26484 6.98359 2.18359 4.79297 2.54609 3.87422C2.78984 3.26172 3.26172 2.78984 3.87734 2.54297C4.79922 2.17734 6.98672 2.26172 8.00547 2.26172C9.02422 2.26172 11.2148 2.18047 12.1336 2.54297C12.7461 2.78672 13.218 3.25859 13.4648 3.87422C13.8305 4.79609 13.7461 6.98359 13.7461 8.00234C13.7461 9.02109 13.8305 11.2117 13.4648 12.1305Z" fill="white"/>
</svg>
