<svg width="16" height="16" viewBox="0 0 16 16" fill="none" xmlns="http://www.w3.org/2000/svg">
<path d="M11.4286 7.14286C12.8482 7.14286 14 5.99107 14 4.57143C14 3.15179 12.8482 2 11.4286 2C10.0089 2 8.85714 3.15179 8.85714 4.57143C8.85714 4.67857 8.8625 4.78571 8.87589 4.89018L6.35536 6.14911C5.89464 5.70179 5.26518 5.42857 4.57143 5.42857C3.15179 5.42857 2 6.58036 2 8C2 9.41964 3.15179 10.5714 4.57143 10.5714C5.26518 10.5714 5.89464 10.2982 6.35536 9.85089L8.87589 11.1098C8.8625 11.2143 8.85714 11.3188 8.85714 11.4286C8.85714 12.8482 10.0089 14 11.4286 14C12.8482 14 14 12.8482 14 11.4286C14 10.0089 12.8482 8.85714 11.4286 8.85714C10.7348 8.85714 10.1054 9.13036 9.64464 9.57768L7.12411 8.31875C7.1375 8.21429 7.14286 8.10982 7.14286 8C7.14286 7.89018 7.1375 7.78571 7.12411 7.68125L9.64464 6.42232C10.1054 6.86964 10.7348 7.14286 11.4286 7.14286Z" fill="white"/>
</svg>
